<svg  viewBox="0 0 700 5369" fill="none" xmlns="http://www.w3.org/2000/svg">
<path d="M0 600.06V5.11902C0 -0.69968 0.701119 -1.55061 4.84994 2.52911C21.5953 18.9955 86.5096 71.5703 326.501 239.061C684 488.561 648 600.06 684 714.56C718.416 824.023 687.028 2540.69 684.2 2691.5C684.077 2698.03 678.766 2702.06 672.228 2702.06H342H12C5.37257 2702.06 0 2696.69 0 2690.06V600.06Z" fill="#FD043C"/>
<path d="M0 4768.56L0.000119984 5363.5C0.000120984 5369.32 0.701246 5370.17 4.8501 5366.09C21.5955 5349.63 86.51 5297.05 326.5 5129.56C684 4880.06 648 4768.56 684 4654.06C718.417 4544.6 687.027 2827.93 684.199 2677.12C684.077 2670.59 678.766 2666.56 672.229 2666.56H341.999H12C5.37258 2666.56 0 2671.93 0 2678.56V4768.56Z" fill="#FD043C"/>
</svg>
